<?xml version="1.0" encoding="UTF-8" standalone="no"?>
<!DOCTYPE svg PUBLIC "-//W3C//DTD SVG 1.1//EN"
 "http://www.w3.org/Graphics/SVG/1.1/DTD/svg11.dtd">
<!-- Generated by graphviz version 2.50.0 (20211204.2007)
 -->
<!-- Title: G Pages: 1 -->
<svg width="278pt" height="116pt"
 viewBox="0.00 0.00 278.00 116.00" xmlns="http://www.w3.org/2000/svg" xmlns:xlink="http://www.w3.org/1999/xlink">
<g id="graph0" class="graph" transform="scale(1 1) rotate(0) translate(4 112)">
<title>G</title>
<polygon fill="white" stroke="transparent" points="-4,4 -4,-112 274,-112 274,4 -4,4"/>
<!-- 1 -->
<g id="node1" class="node">
<title>1</title>
<polygon fill="black" stroke="black" points="54,-108 0,-108 0,-72 54,-72 54,-108"/>
<text text-anchor="middle" x="27" y="-86.3" font-family="Times New Roman,serif" font-size="14.00">black</text>
</g>
<!-- 2 -->
<g id="node2" class="node">
<title>2</title>
<polygon fill="white" stroke="black" points="126,-108 72,-108 72,-72 126,-72 126,-108"/>
</g>
<!-- 1&#45;&gt;2 -->
<g id="edge2" class="edge">
<title>1&#45;&gt;2</title>
<path fill="none" stroke="black" d="M54.28,-90C56.74,-90 59.19,-90 61.65,-90"/>
<polygon fill="black" stroke="black" points="61.75,-93.5 71.75,-90 61.75,-86.5 61.75,-93.5"/>
</g>
<!-- 5 -->
<g id="node5" class="node">
<title>5</title>
<polygon fill="white" stroke="black" points="54,-36 0,-36 0,0 54,0 54,-36"/>
</g>
<!-- 1&#45;&gt;5 -->
<g id="edge1" class="edge">
<title>1&#45;&gt;5</title>
<path fill="none" stroke="black" d="M27,-71.7C27,-63.98 27,-54.71 27,-46.11"/>
<polygon fill="black" stroke="black" points="30.5,-46.1 27,-36.1 23.5,-46.1 30.5,-46.1"/>
</g>
<!-- 3 -->
<g id="node3" class="node">
<title>3</title>
<polygon fill="black" stroke="black" points="198,-108 144,-108 144,-72 198,-72 198,-108"/>
<text text-anchor="middle" x="171" y="-86.3" font-family="Times New Roman,serif" font-size="14.00">black</text>
</g>
<!-- 2&#45;&gt;3 -->
<g id="edge4" class="edge">
<title>2&#45;&gt;3</title>
<path fill="none" stroke="black" d="M126.28,-90C128.74,-90 131.19,-90 133.65,-90"/>
<polygon fill="black" stroke="black" points="133.75,-93.5 143.75,-90 133.75,-86.5 133.75,-93.5"/>
</g>
<!-- 6 -->
<g id="node6" class="node">
<title>6</title>
<polygon fill="black" stroke="black" points="126,-36 72,-36 72,0 126,0 126,-36"/>
<text text-anchor="middle" x="99" y="-14.3" font-family="Times New Roman,serif" font-size="14.00">black</text>
</g>
<!-- 2&#45;&gt;6 -->
<g id="edge3" class="edge">
<title>2&#45;&gt;6</title>
<path fill="none" stroke="black" d="M99,-71.7C99,-63.98 99,-54.71 99,-46.11"/>
<polygon fill="black" stroke="black" points="102.5,-46.1 99,-36.1 95.5,-46.1 102.5,-46.1"/>
</g>
<!-- 4 -->
<g id="node4" class="node">
<title>4</title>
<polygon fill="white" stroke="black" points="270,-108 216,-108 216,-72 270,-72 270,-108"/>
</g>
<!-- 3&#45;&gt;4 -->
<g id="edge6" class="edge">
<title>3&#45;&gt;4</title>
<path fill="none" stroke="black" d="M198.28,-90C200.74,-90 203.19,-90 205.65,-90"/>
<polygon fill="black" stroke="black" points="205.75,-93.5 215.75,-90 205.75,-86.5 205.75,-93.5"/>
</g>
<!-- 7 -->
<g id="node7" class="node">
<title>7</title>
<polygon fill="white" stroke="black" points="198,-36 144,-36 144,0 198,0 198,-36"/>
</g>
<!-- 3&#45;&gt;7 -->
<g id="edge5" class="edge">
<title>3&#45;&gt;7</title>
<path fill="none" stroke="black" d="M171,-71.7C171,-63.98 171,-54.71 171,-46.11"/>
<polygon fill="black" stroke="black" points="174.5,-46.1 171,-36.1 167.5,-46.1 174.5,-46.1"/>
</g>
<!-- 8 -->
<g id="node8" class="node">
<title>8</title>
<polygon fill="black" stroke="black" points="270,-36 216,-36 216,0 270,0 270,-36"/>
<text text-anchor="middle" x="243" y="-14.3" font-family="Times New Roman,serif" font-size="14.00">black</text>
</g>
<!-- 4&#45;&gt;8 -->
<g id="edge7" class="edge">
<title>4&#45;&gt;8</title>
<path fill="none" stroke="black" d="M243,-71.7C243,-63.98 243,-54.71 243,-46.11"/>
<polygon fill="black" stroke="black" points="246.5,-46.1 243,-36.1 239.5,-46.1 246.5,-46.1"/>
</g>
<!-- 5&#45;&gt;6 -->
<g id="edge8" class="edge">
<title>5&#45;&gt;6</title>
<path fill="none" stroke="black" d="M54.28,-18C56.74,-18 59.19,-18 61.65,-18"/>
<polygon fill="black" stroke="black" points="61.75,-21.5 71.75,-18 61.75,-14.5 61.75,-21.5"/>
</g>
<!-- 6&#45;&gt;7 -->
<g id="edge9" class="edge">
<title>6&#45;&gt;7</title>
<path fill="none" stroke="black" d="M126.28,-18C128.74,-18 131.19,-18 133.65,-18"/>
<polygon fill="black" stroke="black" points="133.75,-21.5 143.75,-18 133.75,-14.5 133.75,-21.5"/>
</g>
<!-- 7&#45;&gt;8 -->
<g id="edge10" class="edge">
<title>7&#45;&gt;8</title>
<path fill="none" stroke="black" d="M198.28,-18C200.74,-18 203.19,-18 205.65,-18"/>
<polygon fill="black" stroke="black" points="205.75,-21.5 215.75,-18 205.75,-14.5 205.75,-21.5"/>
</g>
</g>
</svg>
